<?xml version="1.0" encoding="UTF-8"?>
<svg id="Layer_1" xmlns="http://www.w3.org/2000/svg" version="1.1" viewBox="0 0 329.34 341.74">
  <!-- Generator: Adobe Illustrator 30.6.0, SVG Export Plug-In . SVG Version: 2.1.4 Build 109)  -->
  <defs>
    <style>
      .st0 {
        fill: #3e9946;
      }

      .st1 {
        fill: #0a2041;
      }
    </style>
  </defs>
  <path class="st0" d="M51.1,112.19l-12.85,8.23,10.54,8.56s6.92,2.64,8.56,2.96,8.23,1.32,8.23,1.32l-7.91,9.22-19.43,41.83s-11.53,10.21-7.58,9.88,11.2-1.32,11.2-1.32c0,0,13.83-2.31,17.79-6.26s16.47-38.87,16.47-38.87l2.31-14.82s11.2-3.29,13.18-3.29,92.89-1.65,92.89-1.65l44.8-11.2,10.87-5.27-3.29-11.86-5.93-11.2.33-6.59s-8.56-5.6-9.55-5.6h-53.03l-51.39,13.51s-8.56,2.31-13.18,3.62-12.19,7.91-13.51,8.89-6.92,8.23-7.91,8.56-3.62,5.6-3.62,5.6c0,0-6.92-4.61-7.91-4.94s-5.27-.66-6.92-.99-13.18,1.65-13.18,1.65Z"/>
  <path class="st1" d="M308.5,252.94c-31.04,57.76-91.02,94.7-157.66,88.01-59.97-6.02-111.09-43.69-135.83-98.56C-20.51,163.58,8.94,68.68,82.83,23.67,127.14-3.31,181.36-7.71,229.12,12.98c33.88,14.68,60.46,40.72,78.42,72.58,4.01,7.11,6.51,13.37,9.38,20.61,19,48.08,16.23,100.92-8.41,146.77ZM189.56,274.41l.14-5.97,6.91,4.97c2.88.46,3.64.53,5.16,2.84l13.82,21.05c-1.22-11.14-6.82-20.49-13.03-28.94l-15.09-20.54-2.25,8.13c-2.43-1.05-3.81-3.4-6-5.8l-1.29,6.19c-3.19-1.68-3.97-3.41-6.39-6.64l-1.64,6.45-4.84-5.84c-.58,2.78-.91,4.08-2.16,5.15l-6.09-8.57c-1.15,2.14-1,3.78-1.69,4.47-.88.87-3.03.81-5.14.32-1.32-.31-.05-3.53.73-5.77-3.28,1.37-4.69,4.05-8.57,3.76,1.64-2.67,3.22-5.16,1.96-7.58-2.71,4.36-5.67,5.06-10.12,4.84,2.1-3.86,4.32-6.72,4.88-11.85l-6.24,5.3c3.73-9.92,5.74-19.13,4.71-28.9l-4.23,10.22.12-17.65c-1.38-.02-2.2-.33-2.39-.77l-1.08-2.44c-1.09,2.19-1.07,4.95-3.64,7.59-.45-5.23.59-10.23,1.89-15.8l-2.43-.51,2.54-9.04c-4.26,2.91-4.69,6.89-7.08,11.9-1.77-4.84.65-8,1.38-13.09l-5.91,7.71c.07-5.36,1.9-9.32,3.53-13.69-1.59-.16-2.74-.62-3.06-1.1-.21-.32.17-1.5.61-1.94,1.06-1.03.06-2.75-.57-2.7-.54.04-1.17.96-2.98,1.74,1.69-7.15,6.13-13.34,13.31-18.64-2.92-.52-5.21,1.58-9.2,1.82,3.35-3.97,7.34-5.76,11.73-7.61-2.14-1.59-3.72-.65-5.35-.76,3.13-3.15,7.12-3.11,10.93-5.12-3.61-1.52-6.28.16-9.9.65,2.21-3.62,5.77-3.99,9.09-5.35-4.15-2.08-7.81.11-11.14-.33-16.09-2.09-26.64,11.01-30.1,26.97l3.06.88c-1.53,6.11-2.01,11.36-.59,17.19,2.88-5.63,3.03-10.77,7.42-14.7-2.55,10.52-3.78,20.19-1.93,30.1l2.9-9.22,2.04,19.47c1.98-4.42,1.15-8.64,4.31-12.59l1.15,25.99c1.89-3.48,1.69-6.17,4.49-7.85l-3.5,18.2,6.79-6.3-5.31,17.32,8.53-5.78c-1.84,7.58-6.23,12.62-11.11,18.02,4.59,1.18,6.24-1.45,9.59-2.24-7.19,9.97-20.55,11.7-27.48,25.12,4.68-1.66,7.98-4.57,13.67-5.07l-14.83,16.66,11.31-1.88c-5.65,7.26-13.28,10.7-21.9,10.18,2.23-3.41,5.3-3.82,4.73-8.23-4.3,2.25-8.11,4.21-13.48,4.12,14.08-11.58,20.22-28.07,18.93-46.03l-7.26-46.03c-3.42-21.7-5.17-42.72-1.67-64.44.15-.95-4.07-1.52-4.45-.07-6.69,25.53,2.74,53.55-27.1,71.54v-17.86c-8.96,5.65-17.88,7.7-28.13,6.75,21.32-17.64,17.27-43.23,37.56-61.3-12.92,1.9-24.61-4.49-31.7-16.69,5.37-.05,10.86-1.87,15.46-5.32,9.9-7.44,21.46-6.83,31.51-1.53,3.74,1.97,9.78-8.47,12.4-16.46,13.34-40.68,61.6-60.83,102.44-45.99,13.89,5.05,25.25,13.72,32.87,26.25,7.3.96,11.03,7.29,9.51,14.59,3.94,3.9,5.48,8.5,4.82,13.96,4.42,3.43,4.36,8.55,2.61,13.66,15.95,18.24,36.45,32.26,58.15,42.92,8.17,4.02,10.54,13.78,6.72,20.88-3.91,7.25-9.93-1.07-17.26-.08-30.15,4.07-53.83-11.17-79.09-11.37l-19.47,1.87c-11.46,1.1-18.79,9.09-19.15,20.07-.32,9.76,2.79,18.51,7.45,27.19,17.01,33.87,45.18,54.15,51.8,93.7,33.19-16.69,56.96-43.62,72.05-75.96,26.08-55.9,17.25-120.86-21.37-168.66C245.42,24.67,188.9,3.69,133.52,16.57c-38.15,8.88-70.01,31.67-92.01,63.78-22.95,33.5-33.4,73.11-27.66,113.42,8.45,59.36,49,108.43,106.08,126.97,8.71-3.27,17.15-7.79,20.47-17.33-6.21,3.22-10.36,7.54-17.67,6.23,5.91-4.59,11.46-8.16,14.05-15.72-6.45,3.26-10.72,7.43-17.66,6.78,6.4-6.06,11.79-10.57,14.92-18.61-4.75,3.76-8.97,6.46-14.93,7.16,2.8-5.61,5.87-8.53,9.5-12.43-2.83-.58-4.1.69-6.37,1.03,2.22-3.47,4.64-5.46,7.46-7.68l-4.33-1c3.05-3.75,7.38-6.16,12.64-4.92l-3.26,6.66c5.7-1.97,9.81-3.23,14.77-6.25l-.47,9.09,6.95-5.52c1.92,3.07,2.15,5.29,3.17,8.93l5.46-8.33,6.36,10.63,3.28-9.29c3.16,1.75,4.63,4.25,6.44,6.82,1-1.55,1.08-2.45,1.07-4.45l6.81,3.57.97-1.69ZM172.76,63.55l7.69,3.04,1.83-4.08,12.33,7.4c3.46-5.8,3.97,5.87,19.76,3.86-18.43-25.81-58.2-29.9-85.51-15.75l10.17-.23c-6.81,3.78-13.14,5.23-18.52,10.09,5.43-.5,9.13-3.24,13.87-1.7-8.21,3.66-14.61,7.67-20.88,13.42l14.98-2.27-9.17,5.82c11.23,1.52,14.26-3.64,22.43-5.19l-8.43-1.85c6.43-2.9,11.86-2.22,18.78-2.46-2.52-2.41-5.34-2.25-8.97-3.94,7.41-2.17,14.03,2.16,20.83-1.48-3.35-2.16-6.54-1.83-8.57-4.78,6.16.23,11.45,2.1,17.4,3.7.58-1.51-.79-2.05-1.27-2.09l-.86-.97,1.65-.65.47.11ZM160.65,123.7c21.9-.15,42.17-3.74,62.41-7.86l-15.01-1.61c10.16-3.9,21.06-.43,27.68-5.82-12.26-5.72-24.28-7.48-37.52-7.78,1.79-3.96,5.51-1.6,7.64-1.77,9.95-.78,18.31.23,27.6,1.94-2.25-6.35-7.18-7.32-12.43-9.88l5.56-.98c-5.04-2.71-9.95-3.39-15.99-5.02,5.88-1.35,11.5-.48,17.79,1.13-.55-4.44-3.84-5.53-7.52-6.03-40.27-5.37-95.66,5.03-126.8,29.29,23.16-8.35,48.9-18.12,72.06-16.23-25.38,6.27-52.21,12.83-73.2,25.44,7.75.31,12.69-4.57,19.17-5.33l30.49-3.59c-14.66,5.91-29.01,8.33-43.79,11.72-3.45.79-7.04,1.03-9.78,3.32l62.7-8.08c10.84-1.4,21.03-2.97,32.12-2.12l-52.85,9.46,29.68-.2ZM87.26,110.78c6.36-6.45,13.76-9.33,21.1-14.51-8.65,1.29-21.84,7.71-21.1,14.51ZM69.81,120.08c1.79.37,2.48-.53,2.89-.93,3.54-3.37-11.46-10.82-22.82-.79,7.01-1.94,13.38-2.91,19.93,1.72ZM83.16,127.7l-.63-12.88c-4.19,1.25-6.21,4.87-6.76,7.9-.54,2.98.91,6.5,3.72,7.45l-.07-3.84c0-.49.92-1.18,1.47-.25.25.42.63,1.4,2.26,1.61ZM296.13,176.36c-2.99-4.46-6.02-4.68-10.4-6.42,5.74-2.62,11.7-1.61,16.78,3.1-1-4.97-5.33-7.53-9.48-9.38-14.89-6.63-27.02-16.24-39.88-26.11l-22.76-17.47c-2.1-1.62-6.37.31-8.76,1.15.47,15.41-3.14,27.34-17.89,31.21l28.04,10.14c12.4,4.49,24.16,10.39,37.15,12.74l27.19,1.04ZM72.35,123.94c-5.07-3.98-10.07,3.05-19.69,3.91,7.51,2.51,14.02-.8,19.69-3.91ZM72.59,140.82l-6.36,10.2c-2.13,3.42-4.98,5.6-7.46,9.09.73-8.86,5.6-14.81,9.34-23.64-20.04,13.02-17.62,36.62-32.23,54.32,17.95-2.9,31.02-17.29,34.04-34.67l2.66-15.29ZM197.06,156.66l-.65.51c1,3.35,11.03,5.37,17.79,4.98l-17.14-5.5ZM133.43,200.03l-.02.77v.8l.02.77.02-.77v-.8l-.02-.77ZM190.16,275.45l-.52,1.64c1.04.05,1.34-1.17.52-1.64ZM92.13,288.53l-.59.59.59.59.59-.59-.59-.59Z"/>
</svg>