<?xml version="1.0" encoding="UTF-8"?>
<svg id="Layer_1" xmlns="http://www.w3.org/2000/svg" version="1.1" viewBox="0 0 1219.44 289.58">
  <!-- Generator: Adobe Illustrator 30.6.0, SVG Export Plug-In . SVG Version: 2.1.4 Build 109)  -->
  <defs>
    <style>
      .st0 {
        fill: #071e41;
      }

      .st1 {
        fill: #3d9941;
      }
    </style>
  </defs>
  <path class="st1" d="M40.62,95.06l-10.94,7.02,8.98,7.3s5.89,2.24,7.3,2.53,7.02,1.12,7.02,1.12l-6.73,7.86-16.56,35.64s-9.82,8.7-6.45,8.42,9.54-1.12,9.54-1.12c0,0,11.79-1.96,15.15-5.33s14.03-33.11,14.03-33.11l1.96-12.63s9.54-2.81,11.22-2.81,79.13-1.4,79.13-1.4l38.16-9.54,9.26-4.49-2.81-10.1-5.05-9.54.28-5.61s-7.3-4.77-8.14-4.77h-45.18l-43.78,11.51s-7.3,1.96-11.22,3.09-10.38,6.73-11.51,7.58-5.89,7.02-6.73,7.3-3.09,4.77-3.09,4.77c0,0-5.89-3.93-6.73-4.21s-4.49-.56-5.89-.84-11.22,1.4-11.22,1.4Z"/>
  <path class="st0" d="M261.41,214.34c-26.3,48.94-77.13,80.24-133.59,74.58-50.82-5.1-94.14-37.02-115.1-83.52C-17.38,138.61,7.58,58.2,70.19,20.06,107.73-2.81,153.68-6.54,194.15,11c28.71,12.44,51.23,34.51,66.45,61.51,3.4,6.03,5.52,11.33,7.95,17.46,16.1,40.74,13.75,85.51-7.13,124.36ZM160.63,232.53l.12-5.06,5.85,4.21c2.44.39,3.08.45,4.37,2.41l11.71,17.83c-1.03-9.44-5.78-17.36-11.04-24.52l-12.79-17.41-1.9,6.89c-2.06-.89-3.23-2.88-5.09-4.92l-1.1,5.24c-2.7-1.42-3.36-2.89-5.41-5.63l-1.39,5.46-4.1-4.95c-.49,2.35-.77,3.46-1.83,4.36l-5.16-7.26c-.98,1.81-.85,3.21-1.43,3.78-.75.74-2.56.68-4.36.27-1.12-.26-.04-2.99.62-4.89-2.78,1.16-3.98,3.43-7.26,3.18,1.39-2.26,2.73-4.37,1.66-6.42-2.3,3.7-4.81,4.29-8.58,4.1,1.78-3.27,3.66-5.69,4.14-10.04l-5.29,4.49c3.16-8.4,4.87-16.21,3.99-24.49l-3.59,8.66.1-14.95c-1.17-.02-1.86-.28-2.03-.65l-.92-2.06c-.92,1.85-.91,4.19-3.09,6.43-.38-4.44.5-8.67,1.6-13.39l-2.06-.43,2.15-7.66c-3.61,2.46-3.98,5.84-6,10.09-1.5-4.1.55-6.77,1.17-11.09l-5.01,6.53c.06-4.54,1.61-7.89,2.99-11.6-1.35-.13-2.32-.53-2.59-.93-.18-.27.14-1.27.52-1.64.89-.87.05-2.33-.48-2.29-.45.03-.99.81-2.53,1.48,1.43-6.06,5.19-11.3,11.28-15.8-2.48-.44-4.41,1.33-7.8,1.54,2.84-3.37,6.22-4.88,9.94-6.45-1.82-1.35-3.15-.55-4.54-.65,2.65-2.67,6.04-2.64,9.26-4.34-3.06-1.29-5.32.14-8.39.55,1.87-3.07,4.89-3.38,7.71-4.53-3.51-1.76-6.62.09-9.44-.28-13.63-1.77-22.57,9.33-25.51,22.85l2.6.75c-1.3,5.18-1.7,9.63-.5,14.57,2.44-4.77,2.56-9.13,6.29-12.46-2.16,8.92-3.2,17.11-1.64,25.51l2.46-7.81,1.73,16.49c1.68-3.75.98-7.32,3.65-10.67l.98,22.02c1.6-2.95,1.43-5.23,3.81-6.65l-2.97,15.42,5.75-5.33-4.5,14.68,7.23-4.9c-1.56,6.42-5.28,10.7-9.42,15.27,3.89,1,5.29-1.22,8.12-1.9-6.09,8.45-17.41,9.91-23.28,21.28,3.96-1.4,6.76-3.87,11.58-4.29l-12.57,14.11,9.59-1.59c-4.78,6.15-11.25,9.07-18.55,8.63,1.89-2.89,4.49-3.24,4.01-6.97-3.65,1.9-6.87,3.57-11.43,3.49,11.93-9.81,17.13-23.78,16.04-39l-6.15-39c-2.9-18.39-4.38-36.2-1.41-54.61.13-.81-3.45-1.29-3.77-.06-5.66,21.63,2.32,45.38-22.96,60.62v-15.14c-7.59,4.79-15.15,6.52-23.83,5.72,18.07-14.94,14.64-36.63,31.82-51.94-10.94,1.61-20.85-3.8-26.86-14.14,4.55-.05,9.2-1.58,13.1-4.51,8.39-6.3,18.19-5.79,26.7-1.3,3.17,1.67,8.28-7.18,10.5-13.95,11.31-34.47,52.2-51.55,86.81-38.97,11.77,4.28,21.4,11.63,27.85,22.24,6.18.81,9.35,6.17,8.05,12.36,3.34,3.31,4.65,7.21,4.08,11.83,3.75,2.9,3.69,7.24,2.21,11.57,13.52,15.45,30.89,27.33,49.27,36.37,6.92,3.4,8.93,11.68,5.69,17.69-3.31,6.14-8.42-.9-14.63-.07-25.55,3.45-45.62-9.47-67.02-9.63l-16.5,1.59c-9.71.93-15.92,7.7-16.23,17.01-.27,8.27,2.36,15.69,6.31,23.04,14.42,28.7,38.28,45.89,43.9,79.39,28.12-14.14,48.27-36.96,61.05-64.37,22.1-47.37,14.62-102.42-18.11-142.91C207.96,20.9,160.06,3.12,113.14,14.04c-32.33,7.52-59.32,26.84-77.96,54.05-19.45,28.39-28.3,61.95-23.44,96.11,7.16,50.3,41.52,91.88,89.88,107.59,7.38-2.77,14.53-6.6,17.34-14.69-5.26,2.73-8.78,6.39-14.97,5.28,5.01-3.89,9.71-6.91,11.91-13.32-5.47,2.76-9.08,6.29-14.97,5.75,5.42-5.14,9.99-8.95,12.64-15.77-4.03,3.18-7.6,5.47-12.65,6.07,2.38-4.76,4.97-7.23,8.05-10.53-2.4-.49-3.47.59-5.4.87,1.88-2.94,3.93-4.62,6.32-6.51l-3.67-.85c2.58-3.17,6.26-5.22,10.71-4.17l-2.76,5.64c4.83-1.67,8.32-2.74,12.52-5.3l-.4,7.71,5.89-4.67c1.63,2.6,1.82,4.49,2.68,7.57l4.63-7.06,5.39,9,2.78-7.88c2.68,1.48,3.93,3.6,5.46,5.78.85-1.32.91-2.08.91-3.77l5.77,3.03.82-1.43ZM146.39,53.85l6.52,2.58,1.55-3.46,10.45,6.27c2.93-4.91,3.36,4.98,16.75,3.27-15.62-21.87-49.31-25.33-72.46-13.34l8.62-.19c-5.77,3.2-11.14,4.43-15.69,8.55,4.6-.42,7.74-2.75,11.75-1.44-6.96,3.1-12.38,6.5-17.7,11.37l12.69-1.92-7.77,4.93c9.51,1.29,12.08-3.08,19.01-4.4l-7.14-1.57c5.45-2.46,10.05-1.88,15.92-2.09-2.14-2.04-4.53-1.9-7.6-3.33,6.28-1.84,11.89,1.83,17.65-1.26-2.84-1.83-5.54-1.55-7.26-4.05,5.22.19,9.71,1.78,14.74,3.13.5-1.28-.67-1.73-1.08-1.77l-.73-.82,1.4-.55.4.09ZM136.13,104.82c18.56-.12,35.73-3.17,52.88-6.66l-12.72-1.36c8.61-3.3,17.84-.36,23.46-4.93-10.39-4.85-20.57-6.33-31.8-6.59,1.51-3.35,4.67-1.36,6.48-1.5,8.43-.66,15.51.2,23.38,1.64-1.91-5.38-6.08-6.2-10.53-8.37l4.71-.83c-4.27-2.3-8.43-2.88-13.55-4.26,4.98-1.14,9.75-.4,15.08.95-.46-3.76-3.25-4.69-6.38-5.11-34.12-4.55-81.06,4.27-107.45,24.82,19.62-7.07,41.43-15.36,61.06-13.75-21.51,5.31-44.24,10.87-62.02,21.56,6.57.26,10.75-3.87,16.25-4.52l25.84-3.04c-12.42,5-24.58,7.06-37.1,9.93-2.92.67-5.97.87-8.29,2.81l53.13-6.85c9.18-1.18,17.82-2.52,27.22-1.79l-44.79,8.01,25.15-.17ZM73.94,93.87c5.39-5.46,11.66-7.91,17.88-12.3-7.33,1.09-18.51,6.53-17.88,12.3ZM59.15,101.75c1.51.31,2.1-.45,2.45-.79,3-2.86-9.71-9.17-19.34-.67,5.94-1.65,11.34-2.46,16.89,1.46ZM70.46,108.2l-.53-10.91c-3.55,1.06-5.26,4.12-5.72,6.7-.45,2.53.77,5.51,3.15,6.31l-.06-3.26c0-.41.78-1,1.24-.21.21.36.54,1.19,1.92,1.37ZM250.93,149.44c-2.53-3.78-5.1-3.97-8.81-5.44,4.86-2.22,9.91-1.36,14.22,2.63-.84-4.21-4.52-6.38-8.04-7.95-12.62-5.62-22.9-13.76-33.79-22.13l-19.28-14.8c-1.78-1.37-5.4.26-7.42.97.39,13.06-2.66,23.16-15.16,26.44l23.76,8.6c10.51,3.8,20.47,8.8,31.48,10.79l23.04.88ZM61.3,105.02c-4.29-3.37-8.54,2.58-16.69,3.31,6.37,2.12,11.88-.67,16.69-3.31ZM61.51,119.33l-5.39,8.64c-1.81,2.9-4.22,4.74-6.32,7.7.61-7.51,4.75-12.55,7.92-20.04-16.98,11.03-14.93,31.03-27.31,46.03,15.21-2.46,26.28-14.65,28.84-29.38l2.25-12.96ZM169.18,133.38l-.55.43c.85,2.84,9.11,4.55,14.84,4.22l-14.29-4.66ZM113.06,169.5l-.02.65v.68l.02.65.02-.65v-.68l-.02-.65ZM161.13,233.4l-.44,1.39c.88.04,1.13-.99.44-1.39ZM78.06,244.49l-.5.5.5.5.5-.5-.5-.5Z"/>
  <g>
    <path class="st0" d="M323.44,189.86l11.58-4.04v-82.26l-11.58-4.04v-4.96h40.85c21.74,0,37.42,4.29,37.42,21.38,0,12-6.98,19.97-21.5,24.38,18.86,3.25,27.13,11.58,27.13,26.21,0,21.31-19.05,28.3-41.59,28.3h-42.32v-4.96ZM366.44,138.9c10.23-2.82,15.31-9.19,15.31-19.05,0-11.15-6.68-16.72-20.03-16.72-2.57,0-4.66.12-6.98.49v35.16c4.16-.06,8.02,0,11.7.12ZM365.28,186.25c13.96,0,20.7-6.49,20.7-19.97,0-14.76-8.51-18.74-24.13-19.17-1.78-.06-4.29-.12-7.1-.12v37.97c3.67.86,7.04,1.29,10.53,1.29Z"/>
    <path class="st0" d="M415.14,189.42l10.4-3.92v-67.24l-10.4-3.92v-5.4h44.49v5.4l-12.56,3.92v67.17c11.81-.2,18.83-1.42,26.6-3.71l4.25-15.12h7.22v28.22h-70v-5.4Z"/>
    <path class="st0" d="M495.54,189.42l10.8-3.92v-67.24l-10.8-3.92v-5.4h43.27v5.4l-10.8,3.92v67.24l10.8,3.92v5.4h-43.27v-5.4Z"/>
    <path class="st0" d="M573.42,128.4l.4,28.22c.2,9.92.34,18.77.47,28.89l12.22,3.92v5.4h-36.59v-5.4l10.06-3.92c.14-10.6.2-19.31.34-28.69l.61-38.55c-3.71-1.28-7.36-2.63-11-3.92v-5.4h34.43l37.8,57.85-.54-24.03-.41-24.5-12.08-3.92v-5.4h35.85v5.4l-9.59,3.92c-.07,8.44-.27,16.4-.4,24.44l-.88,51.78c-5.81,1.08-10.94,1.08-16.74,0l-43.95-66.09Z"/>
    <path class="st0" d="M654.65,189.42l9.65-3.92v-67.24l-9.65-3.92v-5.4h39.15c21.74,0,49.62,3.78,49.62,38.95,0,31.59-19.91,46.92-51.3,46.92h-37.47v-5.4ZM694.88,186.52c13.1,0,25.25-9.05,25.25-36.86,0-25.52-10.53-31.93-25.11-31.93-3.11,0-6.08.27-9.38.88v66.49c3.04.88,6.21,1.42,9.25,1.42Z"/>
    <path class="st0" d="M787.88,143.13c0-29.21,17.64-50.53,54.33-50.53,13.78,0,23.7,1.84,32.4,5.7.49,8.33,1.47,17.09,2.7,25.97l-8.7,1.71c-4.35-16.29-13.48-24.32-27.93-24.25-19.84-.06-29.95,13.84-29.95,41.4-.06,30.62,12.98,44.47,29.89,44.47,6.19,0,11.64-1.1,16.84-4.41v-25.6l-12.25-3.92v-5.39h40.18v5.51l-8.15,3.8v13.35c0,6.12.25,10.72.86,15.13-10.17,7.29-22.42,10.72-38.46,10.72-30.44,0-51.76-18.13-51.76-53.65Z"/>
    <path class="st0" d="M899.63,164.17v-45.9l-10.4-3.92v-5.4h45.23v5.4l-13.3,3.92v43.74c0,9.86,1.62,23.29,18.56,23.29s18.5-14.31,18.5-23.56v-43.47l-12.35-3.92v-5.4h34.97v5.4l-9.79,3.92v44.76c0,20.66-10.26,33.96-35.1,33.96-22.28,0-36.32-10.53-36.32-32.81Z"/>
    <path class="st0" d="M990.7,189.42l10.8-3.92v-67.24l-10.8-3.92v-5.4h43.27v5.4l-10.8,3.92v67.24l10.8,3.92v5.4h-43.27v-5.4Z"/>
    <path class="st0" d="M1045.09,189.42l9.65-3.92v-67.24l-9.65-3.92v-5.4h39.15c21.74,0,49.62,3.78,49.62,38.95,0,31.59-19.91,46.92-51.3,46.92h-37.46v-5.4ZM1085.32,186.52c13.1,0,25.25-9.05,25.25-36.86,0-25.52-10.53-31.93-25.11-31.93-3.11,0-6.08.27-9.38.88v66.49c3.04.88,6.21,1.42,9.25,1.42Z"/>
    <path class="st0" d="M1140.32,189.42l10.13-3.92v-67.24l-10.13-3.92v-5.4h70.81l.81,23.76h-6.82l-4.46-11.54c-7.22-1.96-16.34-2.84-28.62-2.84v27.14c5.2-.07,10.94-.68,16.13-1.76l3.24-8.78h6.28v30.04h-6.28l-3.24-9.05c-6.08-1.21-10.94-1.75-16.13-1.75v31.12c13.03,0,21.53-.88,30.44-2.9l4.46-13.91h6.68v26.33h-73.31v-5.4Z"/>
  </g>
  <g>
    <rect class="st0" x="323.43" y="62.73" width="896.01" height="6"/>
    <rect class="st0" x="323.43" y="220.84" width="896.01" height="6"/>
  </g>
</svg>